# xmcd CD database file generated by Grip 3.2.0
# 
# Track frame offsets:
#       183
#       16960
#       32880
#       55448
#       70283
#       90013
#       131235
#       149215
#       176123
# 
# Disc length: 2521 seconds
# 
# Revision: 3
# Processed by: cddbd v1.5.1PL2 Copyright (c) Steve Scherf et al.
# Submitted via: Grip 3.2.0
# 
DISCID=8509d709
DTITLE=Albert King - New Orleans Heat
DYEAR=1978
DGENRE=Blues
TTITLE0=Get Out Of My Life Woman
TTITLE1=Born Under A Bad Sign
TTITLE2=The Feeling
TTITLE3=We All Wanna Boogie
TTITLE4=The Very Thought Of You
TTITLE5=I Got The Blues
TTITLE6=I Get Evil
TTITLE7=Angel Of Mercy
TTITLE8=Flat Tire
EXTD=
EXTT0=
EXTT1=
EXTT2=
EXTT3=
EXTT4=
EXTT5=
EXTT6=
EXTT7=
EXTT8=
PLAYORDER=
